<?xml version="1.0" standalone="no"?>
<!DOCTYPE svg PUBLIC "-//W3C//DTD SVG 1.1//EN" "http://www.w3.org/Graphics/SVG/1.1/DTD/svg11.dtd" >
<svg xmlns="http://www.w3.org/2000/svg">
<metadata></metadata>
<defs>
<font id="brixbcondensed_4" horiz-adv-x="940" >
<font-face units-per-em="2048" ascent="1552" descent="-496" />
<missing-glyph horiz-adv-x="327" />
<glyph horiz-adv-x="0" />
<glyph horiz-adv-x="0" />
<glyph unicode="&#xd;" horiz-adv-x="681" />
<glyph unicode=" "  horiz-adv-x="327" />
<glyph unicode="&#x09;" horiz-adv-x="327" />
<glyph unicode="&#xa0;" horiz-adv-x="327" />
<glyph unicode="!" horiz-adv-x="473" d="M104 127q0 59 38 99t94 40q57 0 95 -40t38 -99t-38 -99t-95 -40q-55 0 -93.5 40t-38.5 99zM117 1384h241l-39 -935h-167z" />
<glyph unicode="&#x22;" horiz-adv-x="641" d="M78 1384h192l-20 -499h-152zM379 1384h184l-18 -499h-152z" />
<glyph unicode="#" horiz-adv-x="1105" d="M63 377l27 188h168l31 283h-162l25 188h163l43 348h193l-45 -348h174l43 348h190l-41 -348h170l-26 -188h-172l-31 -283h170l-29 -188h-172l-43 -377h-194l47 377h-170l-45 -377h-195l45 377h-164zM449 565h169l33 283h-172z" />
<glyph unicode="$" d="M82 442h176l45 -249q41 -29 111 -35v442l-68 29q-133 61 -191.5 149t-58.5 238q0 152 77 259t241 128v151h123v-151q158 -14 290 -92v-353h-174l-32 240q-47 18 -84 21v-431l57 -22q147 -63 210.5 -158.5t63.5 -238.5q0 -154 -84 -261.5t-247 -125.5v-193h-123v191 q-180 14 -320 92zM317 1028q0 -63 21.5 -101t75.5 -75v350q-97 -37 -97 -174zM537 172q106 33 106 178q0 111 -106 187v-365z" />
<glyph unicode="%" horiz-adv-x="1314" d="M63 1075q0 143 71 236.5t202 93.5q137 0 206.5 -92t69.5 -237.5t-70.5 -240t-205.5 -94.5t-204 93.5t-69 240.5zM231 1075q0 -162 104.5 -162t104.5 162q0 156 -104.5 156t-104.5 -156zM238 0v25l686 1359h151v-24l-692 -1360h-145zM705 311q0 141 70.5 235.5t201.5 94.5 q137 0 205.5 -93t68.5 -237q0 -147 -70.5 -240.5t-203.5 -93.5q-135 0 -203.5 93.5t-68.5 240.5zM872 311q1 -161 105 -161q106 0 106 161q0 156 -106 156q-104 0 -105 -156z" />
<glyph unicode="&#x26;" horiz-adv-x="1095" d="M72 379q0 145 61.5 231t151.5 117q-176 68 -176 313q0 365 364 365q145 0 285 -72l-60 -184q-106 61 -217 61q-162 0 -162 -198q0 -100 48.5 -153.5t136.5 -53.5h184v182l197 35v-217h139v-178h-139v-342q0 -53 22.5 -83t57.5 -30q10 0 84 18v-182q-80 -31 -146 -31 q-141 0 -192 136q-104 -135 -273 -136q-182 0 -274 112t-92 290zM289 393q0 -221 182 -221q115 0 217 107v348h-192q-207 0 -207 -234z" />
<glyph unicode="'" horiz-adv-x="344" d="M80 1384h186l-18 -499h-152z" />
<glyph unicode="(" horiz-adv-x="499" d="M70 494q0 287 62.5 502.5t184.5 445.5l152 -62q-188 -461 -188 -886q0 -449 184 -887l-148 -62q-248 442 -247 949z" />
<glyph unicode=")" horiz-adv-x="499" d="M31 1380l151 62q123 -229 185.5 -445.5t62.5 -502.5q0 -512 -248 -949l-147 62q96 229 140 435t44 452q0 426 -188 886z" />
<glyph unicode="*" horiz-adv-x="866" d="M68 1032l49 189l229 -93l-16 297h207l-17 -295l246 78l35 -186l-230 -43l154 -227l-164 -111l-139 250l-166 -250l-131 117l170 225z" />
<glyph unicode="+" d="M59 453v200h306v373h206v-373h308v-200h-308v-373h-206v373h-306z" />
<glyph unicode="," horiz-adv-x="370" d="M51 -225l43 493h215l-108 -493h-150z" />
<glyph unicode="-" d="M162 453v200h616v-200h-616z" />
<glyph unicode="." horiz-adv-x="401" d="M59 127q0 59 41 99t100.5 40t99.5 -40t40 -99t-40 -99t-99.5 -40t-100.5 40t-41 99z" />
<glyph unicode="/" horiz-adv-x="661" d="M61 0v27l340 1357h203v-24l-344 -1360h-199z" />
<glyph unicode="0" horiz-adv-x="1056" d="M92 686q0 350 104.5 534.5t335.5 184.5q227 0 329 -183.5t102 -535.5q0 -346 -102.5 -527.5t-334.5 -181.5q-229 0 -331.5 181.5t-102.5 527.5zM309 686q0 -270 49.5 -391t173.5 -121q119 0 168.5 123t49.5 389q0 268 -51.5 395t-174.5 127q-119 0 -167 -127t-48 -395z " />
<glyph unicode="1" horiz-adv-x="831" d="M49 1210l344 174h180v-1189h226v-195h-707v195h273v966l-273 -127z" />
<glyph unicode="2" horiz-adv-x="929" d="M80 999q0 182 93 294t273.5 112t274.5 -110.5t94 -284.5q0 -90 -40 -189.5t-79 -159t-102 -141.5l-246 -325h326v159h170v-354h-762v166q199 244 354 463q82 111 123 193.5t41 187.5q0 92 -40 147t-114 55q-76 0 -115.5 -56t-39.5 -159q0 -43 10 -79l-209 -17 q-12 43 -12 98z" />
<glyph unicode="3" horiz-adv-x="915" d="M53 125l97 172q115 -125 266 -125q193 0 192 209q0 104 -51 155.5t-168 51.5h-125v194h117q92 0 144.5 54.5t52.5 160.5q0 213 -164 213q-90 0 -156 -43v-161h-152l-18 272q143 127 334 127q197 0 283 -108.5t86 -270.5q0 -133 -56.5 -217t-140.5 -113 q96 -25 163.5 -104.5t67.5 -218.5q0 -184 -104.5 -290t-304.5 -106q-111 0 -207 43t-156 105z" />
<glyph unicode="4" horiz-adv-x="966" d="M37 291v162l381 716l102 215h242v-913h160v-180h-160v-291h-205v291h-520zM248 471h309v600z" />
<glyph unicode="5" horiz-adv-x="915" d="M74 94l20 299h168v-182q68 -39 150 -39q209 0 209 268q0 119 -51.5 185.5t-153.5 66.5q-113 0 -234 -67l-67 24l75 735h609v-194h-441l-30 -346q76 45 174 45q158 0 247 -119t89 -321q0 -221 -111 -346.5t-319 -125.5q-191 0 -334 117z" />
<glyph unicode="6" horiz-adv-x="980" d="M90 655q0 348 119 549t371 201q141 0 303 -88l-70 -180q-119 73 -238 73q-96 0 -159.5 -70.5t-86 -166.5t-22.5 -219v-27q78 168 244 168q164 0 258 -121t94 -325q0 -219 -101.5 -345.5t-301.5 -126.5q-199 0 -304.5 174.5t-105.5 503.5zM311 514q2 -152 49.5 -247 t147.5 -95q94 0 139 72.5t45 191.5q0 115 -44 181.5t-130 66.5q-137 0 -207 -170z" />
<glyph unicode="7" horiz-adv-x="864" d="M66 958v426h770v-153q-70 -123 -134 -313l-296 -918h-238l414 1204h-326v-246h-190z" />
<glyph unicode="8" horiz-adv-x="1005" d="M94 371q0 111 47 195.5t117 133.5q-137 104 -137 312q0 168 104.5 280.5t278.5 112.5q178 0 280.5 -107.5t102.5 -271.5q0 -186 -158 -309q186 -106 186 -334q0 -188 -111.5 -297t-301.5 -109q-186 0 -297 104.5t-111 289.5zM301 393q0 -102 54.5 -163.5t156.5 -61.5 q92 0 139 51t47 141q0 131 -133 193l-172 78q-92 -106 -92 -238zM328 1032q0 -127 121 -182l137 -64q96 84 96 218q0 98 -46 157.5t-142 59.5q-80 0 -123 -51.5t-43 -137.5z" />
<glyph unicode="9" horiz-adv-x="976" d="M80 926q0 215 103.5 347t295.5 132q111 0 192 -54.5t127 -152.5t67.5 -219t21.5 -270q0 -731 -484 -732q-172 0 -309 103l68 182q117 -90 241 -90q268 0 269 438q0 20 -2 33q-27 -72 -93.5 -124t-156.5 -52q-156 0 -248 128t-92 331zM291 942q0 -123 43 -193.5t129 -70.5 q133 0 203 174q0 152 -48.5 255t-144.5 103q-92 0 -137 -74.5t-45 -193.5z" />
<glyph unicode=":" horiz-adv-x="471" d="M96 127q0 59 40 99t99.5 40t99.5 -40t40 -99t-40 -99t-99.5 -40t-99.5 40t-40 99zM96 815.5q0 61.5 40 100t99.5 38.5t99.5 -38.5t40 -100t-40 -101.5t-99.5 -40t-99.5 40t-40 101.5z" />
<glyph unicode=";" horiz-adv-x="458" d="M100 -225l43 493h217l-110 -493h-150zM106 815.5q0 61.5 40 100t99.5 38.5t100.5 -38.5t41 -100t-41 -101.5t-100.5 -40t-99.5 40t-40 101.5z" />
<glyph unicode="&#x3c;" d="M94 434v238l715 334v-209l-547 -246l547 -244v-207z" />
<glyph unicode="=" d="M113 223v201h712v-201h-712zM113 684v201h712v-201h-712z" />
<glyph unicode="&#x3e;" d="M129 100v207l547 244l-547 246v209l715 -334v-238z" />
<glyph unicode="?" horiz-adv-x="796" d="M63 1264q127 141 328 141q162 0 250 -95.5t88 -238.5q0 -80 -21.5 -145.5t-62.5 -112.5t-74.5 -74.5t-81.5 -56.5v-233h-206v313q121 61 182 125.5t61 152.5q0 78 -38.5 124t-106.5 46q-82 0 -133 -55v-162h-152q-12 90 -33 271zM248 127q0 59 38 99t95 40t95 -40t38 -99 t-38 -99t-95 -40t-95 40t-38 99z" />
<glyph unicode="@" horiz-adv-x="1548" d="M86 471q0 244 80 439.5t246 316.5t391 121q322 0 499 -216.5t177 -541.5q0 -283 -93.5 -448t-275.5 -165q-92 0 -133 42t-57 116q-104 -158 -256 -158q-115 0 -183.5 70t-82 182.5t2.5 253.5q33 217 127.5 344t239.5 127q123 0 199 -106l12 86h188l-86 -610 q-16 -94 -3.5 -142.5t61.5 -48.5q84 0 132 120t48 339q0 270 -124 433t-392 163q-150 0 -260.5 -58.5t-173 -161t-92 -225t-29.5 -266.5q0 -340 127 -512t411 -172q160 0 324 72l35 -148q-168 -82 -359 -82q-356 0 -528 222.5t-172 613.5zM592 465q-43 -311 117 -311 q90 0 174 96l61 444q-76 84 -151 84q-158 0 -201 -313z" />
<glyph unicode="A" horiz-adv-x="1171" d="M12 0v180h99l292 1024h-94v180h553v-180h-92l293 -1024h96v-180h-465v180h146l-64 242h-381l-65 -242h145v-180h-463zM438 600h299l-151 571z" />
<glyph unicode="B" horiz-adv-x="1071" d="M78 0v180h117v1024h-117v180h510q342 0 342 -362q0 -113 -42 -191.5t-108 -99.5q82 -23 142.5 -117t60.5 -223q0 -391 -395 -391h-510zM401 180h179q193 0 192 219q0 225 -192 226h-179v-445zM401 805h154q164 0 164 205q0 194 -160 194h-2h-156v-399z" />
<glyph unicode="C" horiz-adv-x="1024" d="M82 696q0 332 133 520.5t379 188.5q168 0 356 -90l-12 -438h-184l-6 290q-74 39 -160 39q-141 0 -214 -135t-73 -375q0 -238 74 -375t221 -137q162 0 313 97l45 -189q-178 -115 -368 -115q-504 0 -504 719z" />
<glyph unicode="D" horiz-adv-x="1157" d="M78 0v180h117v1024h-117v180h418q324 0 449.5 -162.5t125.5 -529.5q0 -362 -126 -527t-449 -165h-418zM403 180h127q190 0 260 116t70 400q0 274 -73.5 391t-256.5 117h-127v-1024z" />
<glyph unicode="E" horiz-adv-x="1017" d="M78 0v180h117v1024h-117v180h852v-389h-193v209h-336v-411h340v-183h-340v-430h342v215h193v-395h-858z" />
<glyph unicode="F" horiz-adv-x="950" d="M78 0v180h117v1024h-117v180h825v-405h-192v225h-310v-465h347v-186h-347v-373h203v-180h-526z" />
<glyph unicode="G" horiz-adv-x="1124" d="M82 702q0 330 133.5 516.5t407.5 186.5q182 0 372 -78l-14 -399h-182l-6 248q-87 28 -175 28h-6q-311 0 -311 -499q0 -528 326 -529q121 0 204 39v283h-262v186h461v-608q-197 -98 -414 -99q-260 0 -397 183.5t-137 541.5z" />
<glyph unicode="H" horiz-adv-x="1286" d="M80 0v180h110v1024h-110v180h475v-180h-158v-389h492v389h-158v180h473v-180h-108v-1024h108v-180h-473v180h158v445h-492v-445h158v-180h-475z" />
<glyph unicode="I" horiz-adv-x="606" d="M70 0v180h131v1024h-131v180h467v-180h-127v-1024h127v-180h-467z" />
<glyph unicode="J" horiz-adv-x="563" d="M29 -319q76 74 113.5 151.5t37.5 198.5v1173h-145v180h461v-180h-109v-1151q0 -352 -233 -518z" />
<glyph unicode="K" horiz-adv-x="1150" d="M76 0v180h117v1024h-117v180h430v-180h-105v-1024h105v-180h-430zM440 719l326 485h-121v180h467v-180h-125l-313 -481l332 -543h120v-180h-477v180h119z" />
<glyph unicode="L" horiz-adv-x="923" d="M80 0v180h113v1024h-113v180h446v-180h-125v-1024h291v273h189v-453h-801z" />
<glyph unicode="M" horiz-adv-x="1556" d="M37 0v180h110l95 1024h-109v180h414l231 -1132l238 1132h409v-180h-108l86 -1024h117v-180h-445v180h135l-71 963l-256 -1143h-224l-239 1139l-80 -959h141v-180h-444z" />
<glyph unicode="N" horiz-adv-x="1277" d="M80 0v180h113v1024h-113v180h346l469 -999v819h-160v180h477v-180h-108v-1204h-227l-478 1001v-821h174v-180h-493z" />
<glyph unicode="O" horiz-adv-x="1122" d="M86 690q0 354 107.5 535.5t367.5 181.5q258 0 366.5 -181.5t108.5 -535.5q0 -350 -109.5 -531.5t-367.5 -181.5t-365.5 180.5t-107.5 532.5zM311 690q0 -268 54.5 -393t195.5 -125t195.5 125t54.5 393t-54.5 394t-193.5 126t-195.5 -127t-56.5 -393z" />
<glyph unicode="P" horiz-adv-x="1028" d="M78 0v180h117v1024h-117v180h493q207 0 306.5 -113.5t99.5 -318.5q0 -203 -99.5 -316.5t-306.5 -113.5h-77v185h88q182 0 182 245q0 252 -182 252h-181v-1024h201v-180h-524z" />
<glyph unicode="Q" horiz-adv-x="1179" d="M86 690q0 354 107.5 535.5t367.5 181.5q258 0 366.5 -181.5t108.5 -535.5q0 -195 -39 -338q104 -162 148 -352h-213q-59 217 -189.5 364.5t-334.5 147.5q-29 0 -91 -4q16 -172 72.5 -254t173.5 -82q98 0 154 72q70 -61 100 -158q-100 -109 -258 -109q-258 0 -365.5 180.5 t-107.5 532.5zM311 692q50 6 107 6q211 0 389 -135q4 78 4 127q0 268 -54.5 394t-193.5 126t-195.5 -127t-56.5 -391z" />
<glyph unicode="R" horiz-adv-x="1118" d="M76 1204v180h514q211 0 308 -98t97 -293q0 -291 -235 -364q70 -68 128 -198t81 -251h129v-180h-457v180h102q-16 104 -74.5 235.5t-121.5 188.5h-146v-424h109v-180h-432v180h117v1024h-119zM401 780h174q207 0 207 211q0 213 -192 213h-189v-424z" />
<glyph unicode="S" horiz-adv-x="944" d="M84 442h174l47 -249q55 -39 158 -39q86 0 134 50t48 146q0 152 -151 215l-146 64q-133 59 -191.5 148t-58.5 239q0 168 92.5 279.5t288.5 111.5q190 0 350 -96v-353h-176l-30 240q-55 27 -131 27q-84 0 -128.5 -53.5t-44.5 -143.5q0 -74 31 -122t115 -85l129 -55 q150 -63 212 -157.5t62 -239.5q0 -168 -98 -280t-295 -112q-205 0 -379 95z" />
<glyph unicode="T" horiz-adv-x="995" d="M43 983v401h911v-401h-172v221h-186v-1024h152v-180h-512v180h155v1024h-174v-221h-174z" />
<glyph unicode="U" horiz-adv-x="1179" d="M51 1204v180h463v-180h-149v-717q0 -178 54 -245.5t171 -67.5q115 0 169 67.5t54 245.5v717h-147v180h460v-180h-106v-712q0 -281 -111.5 -396.5t-320.5 -115.5q-207 0 -317.5 115.5t-110.5 396.5v712h-109z" />
<glyph unicode="V" horiz-adv-x="1155" d="M12 1204v180h480v-180h-152l238 -993l233 993h-143v180h481v-180h-115l-317 -1204h-281l-315 1204h-109z" />
<glyph unicode="W" horiz-adv-x="1624" d="M12 1204v180h457v-180h-131l147 -979l236 881l-78 278h229l271 -1157l149 977h-170v180h488v-180h-109l-223 -1204h-254l-209 848l-213 -848h-256l-223 1204h-111z" />
<glyph unicode="X" horiz-adv-x="1112" d="M29 0v180h114l285 535l-270 489h-119v180h450v-180h-102l170 -354l166 354h-102v180h446v-180h-115l-272 -489l295 -535h112v-180h-458v180h112l-186 377l-184 -377h112v-180h-454z" />
<glyph unicode="Y" horiz-adv-x="1081" d="M10 1204v180h459v-180h-135l209 -477l213 477h-135v180h458v-180h-108l-326 -659v-365h133v-180h-485v180h143v365l-317 659h-109z" />
<glyph unicode="Z" horiz-adv-x="1003" d="M72 0v166l583 1036h-381v-241h-188v423h825v-165l-581 -1039h399v314h189v-494h-846z" />
<glyph unicode="[" horiz-adv-x="575" d="M121 -442v1867h414v-180h-203v-1507h203v-180h-414z" />
<glyph unicode="\" horiz-adv-x="671" d="M57 1362v24h203l350 -1359v-27h-198z" />
<glyph unicode="]" horiz-adv-x="575" d="M41 -262h203v1507h-203v180h414v-1867h-414v180z" />
<glyph unicode="^" horiz-adv-x="1091" d="M111 920l436 512l434 -512l-135 -144l-297 373l-303 -371z" />
<glyph unicode="_" horiz-adv-x="1026" d="M176 -63h672v-146h-672v146z" />
<glyph unicode="`" horiz-adv-x="1007" d="M342 1425h203l121 -329h-179z" />
<glyph unicode="a" horiz-adv-x="851" d="M53 240q0 137 96.5 203.5t282.5 91.5l90 14v203q-51 20 -112 20q-70 0 -113 -20v-146h-172q-27 66 -27 131q0 98 79 157.5t235 59.5q176 0 242.5 -74.5t66.5 -267.5v-383q0 -59 45 -59q6 0 43 6v-176q-49 -12 -111 -12q-143 0 -159 141q-86 -152 -244 -152 q-115 0 -178.5 70t-63.5 193zM264 260q0 -108 90 -108h2q90 0 166 88v170l-90 -17q-88 -16 -128 -47t-40 -86z" />
<glyph unicode="b" horiz-adv-x="899" d="M8 1245v180h305v-573q72 102 193 102q322 0 321 -485q0 -492 -321 -492q-145 0 -223 101l-105 -78h-61v1245h-109zM313 260q51 -88 144 -88q94 0 130 73.5t36 223.5q0 147 -36 219t-130 72q-98 0 -144 -82v-418z" />
<glyph unicode="c" horiz-adv-x="792" d="M164 819q96 135 278 135q158 0 289 -80l-35 -333h-159v215q-41 20 -95 20q-159 0 -159 -287v-4q0 -154 41 -234.5t143 -80.5q111 0 223 74l47 -172q-150 -94 -301 -95q-368 0 -368 489q0 218 96 353z" />
<glyph unicode="d" horiz-adv-x="944" d="M72 469q0 240 83 362.5t238 122.5q139 0 209 -102v393h-143v180h336v-1245h110v-180h-135q-125 0 -139 137q-90 -160 -246 -160q-313 0 -313 492zM274 469q0 -145 39 -221t133 -76q92 0 154 94v412q-55 82 -154 82q-94 0 -133 -73t-39 -218z" />
<glyph unicode="e" horiz-adv-x="815" d="M160 821q92 133 264 133q166 0 246 -111.5t80 -289.5q0 -86 -15 -154h-467q7 -237 181 -237q113 0 227 80l63 -162q-141 -102 -301 -103q-370 0 -370 489q0 222 92 355zM272 553h285q4 25 4 37q0 90 -39 140t-98 50q-146 0 -152 -227z" />
<glyph unicode="f" horiz-adv-x="616" d="M68 0v162l106 35v557h-106v180h106v199q0 139 64.5 226t197.5 87q64 0 121 -16v-187q-55 12 -96 12q-53 0 -73.5 -33.5t-20.5 -105.5v-182h204v-180h-204v-574h157v-180h-456z" />
<glyph unicode="g" horiz-adv-x="860" d="M45 -215q0 72 42 126t89 69q-68 35 -67 126q0 98 96 191q-131 84 -131 293q0 170 89 267t263 97q125 0 203 -69q65 128 190 128q10 0 19 -1l6 -201l-137 -35q41 -76 41 -194q0 -156 -89.5 -243t-234.5 -87q-86 0 -133 16l-10 -133h258q121 0 191.5 -66.5t70.5 -191.5 q0 -156 -113 -248t-295 -92q-348 0 -348 248zM231 -168q0 -68 37 -101.5t133 -33.5q195 0 195 145q0 111 -121 111h-188q-55 -51 -56 -121zM264 588q0 -180 154 -180q147 0 147 180q0 86 -36.5 136t-110.5 50q-154 0 -154 -186z" />
<glyph unicode="h" horiz-adv-x="976" d="M49 0v180h101v1063h-99v182h291v-579q108 108 242 108h2q127 0 189.5 -73.5t62.5 -243.5v-457h98v-180h-391v180h98v436q0 76 -26.5 110t-94.5 34q-102 0 -180 -78v-502h98v-180h-391z" />
<glyph unicode="i" horiz-adv-x="589" d="M53 0v180h162v574h-162v180h359v-754h145v-180h-504zM182 1262q0 66 34 99.5t89 33.5q51 0 86 -34t35 -99q0 -63 -35 -95t-86 -32q-123 0 -123 127z" />
<glyph unicode="j" horiz-adv-x="479" d="M31 -313q70 51 103.5 110.5t33.5 153.5v803h-133v180h327v-957q1 -313 -212 -440zM131 1262q0 66 34 99.5t91 33.5q51 0 86 -34t35 -99q0 -63 -35 -95t-86 -32q-125 0 -125 127z" />
<glyph unicode="k" horiz-adv-x="972" d="M41 0v180h111v1065h-111v180h303v-936l248 265h-119v180h440v-180h-133l-190 -211l205 -363h141v-180h-344v172l-133 260l-115 -117v-135h129v-180h-432z" />
<glyph unicode="l" horiz-adv-x="473" d="M-6 1245v180h313v-1144q0 -59 15.5 -84t50.5 -25t71 10l2 -178q-59 -27 -139 -27q-109 0 -150.5 71t-41.5 206v991h-121z" />
<glyph unicode="m" horiz-adv-x="1372" d="M70 0v180h98v574h-96v180h268v-105q80 125 221 125q135 0 193 -135q92 135 252 135q119 0 173 -69.5t54 -227.5v-477h96v-180h-360v180h69v461q0 119 -94 119q-90 0 -145 -78v-502h71v-180h-335v180h69v500q-25 80 -100 80q-80 0 -144 -76v-504h72v-180h-362z" />
<glyph unicode="n" horiz-adv-x="995" d="M70 0v180h98v574h-96v180h268v-109q115 129 266 129q129 0 189.5 -74.5t60.5 -242.5v-457h96v-180h-389v180h99v436q0 78 -26 111t-91 33q-100 0 -183 -78v-502h99v-180h-391z" />
<glyph unicode="o" horiz-adv-x="874" d="M156.5 830.5q86.5 123.5 283.5 123.5q367 0 367 -485q0 -242 -88 -367t-285 -125q-364 0 -364 485q0 245 86.5 368.5zM274 469q0 -162 37 -231.5t127 -69.5t126 68.5t36 228.5q0 164 -36 231.5t-128 67.5q-90 0 -126 -67.5t-36 -227.5z" />
<glyph unicode="p" horiz-adv-x="931" d="M41 754v180h289v-105q76 125 209 125q321 0 321 -486q-1 -490 -321 -491q-131 0 -193 101v-340h160v-180h-443v170l87 26v1000h-109zM346 254q49 -82 143.5 -82t130 72.5t35.5 220t-35.5 221.5t-130.5 74q-43 0 -81.5 -26.5t-61.5 -63.5v-416z" />
<glyph unicode="q" horiz-adv-x="897" d="M72 465q0 489 321 489q76 0 126 -29.5t104 -82.5l26 174h133v-1268l99 -29v-161h-463v180h170v340q-76 -100 -197 -101q-319 0 -319 488zM276 464.5q0 -147.5 36 -220t130 -72.5q88 0 146 82v416q-53 90 -145.5 90t-129.5 -74t-37 -221.5z" />
<glyph unicode="r" horiz-adv-x="718" d="M66 0v162l108 35v557h-108v180h290v-203q20 84 81 153.5t134 69.5q63 0 119 -10l-16 -242l-137 35q-111 -12 -166 -141v-416h168v-180h-473z" />
<glyph unicode="s" horiz-adv-x="761" d="M72 307h155l33 -157q53 -23 109 -23q51 0 80.5 27.5t29.5 76.5q0 86 -86 125l-149 68q-84 39 -124 95t-40 157q0 123 74.5 200.5t234.5 77.5q166 0 279 -59v-250h-154l-22 141q-42 16 -92 16l-2 1q-48 0 -76 -31t-27 -78q0 -84 82 -119l155 -67q164 -68 164 -256 q0 -274 -321 -275q-160 0 -291 66z" />
<glyph unicode="t" horiz-adv-x="595" d="M29 754v159l139 21v231l194 33v-264h177v-180h-177v-484q0 -98 84 -98q66 0 117 18l2 -182q-66 -31 -178 -31q-121 0 -170 67t-49 200v510h-139z" />
<glyph unicode="u" horiz-adv-x="985" d="M37 754v180h305v-619q0 -80 26.5 -110.5t84.5 -30.5q55 0 109 37t77 86v457h-139v180h334v-754h112v-180h-266v160q-37 -72 -110.5 -127.5t-172.5 -55.5q-131 0 -191.5 75t-60.5 243v459h-108z" />
<glyph unicode="v" horiz-adv-x="948" d="M25 754v180h401v-180h-96l147 -557l152 557h-94v180h389v-180h-97l-229 -754h-252l-225 754h-96z" />
<glyph unicode="w" horiz-adv-x="1341" d="M29 754v180h399v-180h-115l111 -549l166 516l-60 213h195l201 -727l102 547h-117v180h404v-180h-92l-172 -754h-228l-145 516l-162 -516h-221l-182 754h-84z" />
<glyph unicode="x" horiz-adv-x="950" d="M47 0v180h88l189 301l-170 273h-101v180h355v-174l118 -199l111 193h-119v180h377v-180h-96l-178 -285l194 -289h90v-180h-352v172l-127 219l-123 -211h127v-180h-383z" />
<glyph unicode="y" horiz-adv-x="978" d="M23 754v180h339v-178l152 -508l148 506h-164v180h456v-180h-100l-332 -1004q-68 -213 -248 -213q-102 0 -168 35v154h216l92 282l-267 746h-124z" />
<glyph unicode="z" horiz-adv-x="790" d="M68 0v143l395 633h-219l-15 -162h-145v320h621v-141l-404 -635h260l17 178h141v-336h-651z" />
<glyph unicode="{" horiz-adv-x="546" d="M25 410v163q57 0 107 41t50 131v394q0 158 71 222t232 64v-165q-49 0 -71.5 -31t-22.5 -113v-393q0 -188 -172 -231q59 -12 115.5 -65.5t56.5 -164.5v-418q0 -76 21.5 -97t72.5 -23v-166q-162 0 -232.5 64.5t-70.5 221.5v398q0 92 -50 130t-107 38z" />
<glyph unicode="|" horiz-adv-x="366" d="M121 -442v1867h125v-1867h-125z" />
<glyph unicode="}" horiz-adv-x="546" d="M61 -276q35 2 51.5 8t30 32.5t13.5 79.5v418q0 111 55 164t115 66q-170 43 -170 231v393q0 82 -23.5 113t-71.5 31v165q160 0 230.5 -64.5t70.5 -221.5v-394q0 -90 51.5 -131t108.5 -41v-163q-59 0 -109.5 -38t-50.5 -130v-398q0 -160 -69.5 -223t-231.5 -63v166z" />
<glyph unicode="~" horiz-adv-x="780" d="M78 446l4 207q72 -68 133 -67q49 0 151.5 67.5t180.5 67.5q69 -1 155 -64l-4 -204q-86 68 -151 67q-49 0 -153.5 -67.5t-168.5 -67.5q-78 0 -147 61z" />
<glyph unicode="&#xa1;" horiz-adv-x="448" d="M92 815q0 59 38 99t93 40q57 0 95 -40t38 -99t-37.5 -99t-95.5 -40q-55 0 -93 40t-38 99zM102 -442l39 934h168l35 -934h-242z" />
<glyph unicode="&#xa2;" d="M135 469q0 211 94.5 349t278.5 138q20 0 65 -4l31 156l111 -18l-33 -160q68 -23 141 -68l-47 -172q-59 39 -131 58l-115 -576q35 0 68 6q102 10 178 66l47 -172q-131 -82 -254 -90q-51 -4 -77 -2l-25 -127l-111 20l27 125q-127 43 -187.5 169t-60.5 302zM350 485 q0 -195 76 -268l109 545q-20 0 -46 -10q-68 -14 -103.5 -85t-35.5 -182z" />
<glyph unicode="&#xa3;" d="M78 0v147l106 70v258h-106v143h106v291q0 223 88 359.5t285 136.5q164 0 315 -78l-34 -350h-154v219q-61 25 -119 25q-96 0 -135 -81t-39 -233v-289h283v-143h-283v-295h451v-180h-764z" />
<glyph unicode="&#xa4;" d="M70 879l139 143l127 -154q57 37 133 37q84 0 137 -41l127 154l127 -135l-129 -166q23 -76 23 -156q0 -82 -21 -160l135 -170l-137 -145l-135 162q-53 -35 -131 -35q-80 0 -133 35l-125 -152l-131 135l131 162q-23 68 -23 166q0 94 19 152zM360 561q0 -160 109 -160 q106 0 106 158t-108 158q-106 0 -107 -156z" />
<glyph unicode="&#xa5;" d="M-14 1204v180h417v-180h-100l164 -469l170 469h-102v180h417v-180h-98l-137 -307h162v-145h-224l-59 -134h283v-143h-310v-295h115v-180h-446v180h122v295h-301v143h275l-60 134h-215v145h156l-131 307h-98z" />
<glyph unicode="&#xa6;" horiz-adv-x="380" d="M129 348h123v-790h-123v790zM129 627v798h123v-798h-123z" />
<glyph unicode="&#xa7;" horiz-adv-x="960" d="M96 596q0 154 113 254q-111 90 -111 227q0 139 100.5 233.5t284.5 94.5q186 0 348 -86v-266h-151l-29 143q-74 37 -168 37q-78 0 -123 -33t-45 -88q0 -59 36 -91t124 -71l127 -57q137 -61 201.5 -138t64.5 -194q0 -147 -112 -248q111 -92 110 -225q0 -131 -105.5 -226 t-295.5 -95q-203 0 -352 90v282h151l27 -157q70 -47 174 -48q182 0 182 123q0 27 -9 49.5t-30.5 40t-36 27.5t-46 25.5t-40.5 19.5l-139 64q-125 57 -187.5 130.5t-62.5 182.5zM303 639q0 -59 31 -95t96 -67l176 -82q51 51 51 129q0 115 -139 176l-164 72q-51 -59 -51 -133z " />
<glyph unicode="&#xa8;" horiz-adv-x="1007" d="M207 1241q0 66 33.5 98.5t89.5 32.5q51 0 87 -32.5t36 -98.5q0 -63 -36 -95t-87 -32q-123 0 -123 127zM555 1241q0 66 34 98.5t89 32.5q49 0 85 -32.5t36 -98.5q0 -63 -36 -95t-85 -32q-123 0 -123 127z" />
<glyph unicode="&#xa9;" horiz-adv-x="1423" d="M86 688q0 348 164 547t463 199t462.5 -199t163.5 -547t-163.5 -548.5t-462.5 -200.5q-297 0 -462 200.5t-165 548.5zM240 688q0 -291 117.5 -445.5t355.5 -154.5q236 0 354.5 154.5t118.5 445.5t-119 444.5t-354 153.5q-238 0 -355.5 -153.5t-117.5 -444.5zM395 686 q0 186 86 297t240 111q106 0 221 -60v-276h-131v153q-41 23 -90 23q-74 0 -113 -65.5t-39 -182.5q0 -111 36 -181.5t112 -70.5q94 0 207 72l43 -141q-127 -90 -250 -91q-322 0 -322 412z" />
<glyph unicode="&#xaa;" horiz-adv-x="610" d="M63 872q0 104 61.5 144.5t182.5 40.5h49v51q0 76 -63 76q-35 -1 -68 -15v-69h-114l-13 153q84 55 195 56q203 0 203 -191v-246q0 -33 24 -32l29 2v-125q-27 -8 -74 -8q-88 0 -108 84q-51 -90 -150 -91q-72 0 -113 46.5t-41 123.5zM211 885q0 -57 53 -58q51 0 92 52v79 h-49q-96 1 -96 -73z" />
<glyph unicode="&#xab;" horiz-adv-x="931" d="M41 553l332 453l129 -95l-221 -360l221 -356l-129 -95zM408 553l331 453l127 -95l-221 -360l223 -356l-129 -95z" />
<glyph unicode="&#xac;" horiz-adv-x="1015" d="M78 666v200h819v-571h-195v371h-624z" />
<glyph unicode="&#xad;" d="M162 453v200h616v-200h-616z" />
<glyph unicode="&#xae;" horiz-adv-x="1423" d="M86 688q0 348 164 547t463 199t462.5 -199t163.5 -547t-163.5 -548.5t-462.5 -200.5q-297 0 -462 200.5t-165 548.5zM240 688q0 -291 117.5 -445.5t355.5 -154.5q236 0 354.5 154.5t118.5 445.5t-119 444.5t-354 153.5q-238 0 -355.5 -153.5t-117.5 -444.5zM416 281v120 h67v562h-67v120h313q254 0 254 -239q0 -174 -133 -219l113 -224h69v-120h-284v120h61l-92 205h-90v-205h59v-120h-270zM627 727h96q61 0 90 34t29 83q0 51 -28 85t-85 34h-102v-236z" />
<glyph unicode="&#xaf;" horiz-adv-x="1007" d="M252 1141v172h502v-172h-502z" />
<glyph unicode="&#xb0;" horiz-adv-x="573" d="M57 1118q0 121 60.5 204t167.5 83q111 0 172 -83t61 -204q0 -119 -61.5 -200.5t-171.5 -81.5q-106 0 -167 82.5t-61 199.5zM170 1118q0 -70 29.5 -116t85 -46t86 46.5t30.5 116t-30.5 117.5t-86 48t-85 -47t-29.5 -119z" />
<glyph unicode="&#xb1;" d="M59 55v201h820v-201h-820zM59 731v201h306v371h206v-371h308v-201h-308v-305h-206v305h-306z" />
<glyph unicode="&#xb2;" horiz-adv-x="569" d="M47 1401q0 98 57.5 160.5t169.5 62.5q111 0 168.5 -61.5t57.5 -157.5q0 -121 -142 -275q-86 -92 -110 -120h147v75h123v-211h-463v113q61 61 191 213q53 66 74.5 106t21.5 93q0 90 -70 90q-33 0 -52 -23.5t-19 -64.5q0 -29 8 -53l-152 -13q-10 31 -10 66z" />
<glyph unicode="&#xb3;" horiz-adv-x="555" d="M31 942l69 117q66 -59 152 -60q94 0 94 84q0 45 -25.5 64.5t-87.5 19.5h-73v136h69q45 0 72 24.5t27 67.5q0 92 -78 92q-45 0 -78 -17v-73h-106l-17 157q86 70 205 70q125 0 176 -62.5t51 -144.5q0 -139 -106 -174q129 -31 129 -168q0 -98 -64.5 -155.5t-187.5 -57.5 q-137 0 -221 80z" />
<glyph unicode="&#xb4;" horiz-adv-x="1007" d="M342 1096l121 329h203l-146 -329h-178z" />
<glyph unicode="&#xb5;" horiz-adv-x="1036" d="M68 754v180h305v-567q0 -98 29.5 -145.5t99.5 -47.5q53 0 99 35t71 88v457h-140v180h334v-754h113v-180h-268v160q-72 -141 -203 -168q-70 -12 -135 6v-440h-195v1196h-110z" />
<glyph unicode="&#xb6;" horiz-adv-x="946" d="M53 621q0 156 82 234.5t219 78.5h199v-983h-180v366q-319 2 -320 304zM508 -332q68 49 98.5 109.5t30.5 159.5v997h178v-957q0 -154 -40.5 -262t-153.5 -180z" />
<glyph unicode="&#xb7;" horiz-adv-x="413" d="M66 551q0 59 40.5 99t100 40t99.5 -40t40 -99t-40 -99t-99.5 -40t-100 40t-40.5 99z" />
<glyph unicode="&#xb8;" horiz-adv-x="1007" d="M322 -360l16 98q82 -49 137 -49q70 0 70 63q0 61 -51 62q-29 0 -45 -17q-51 20 -72 31l55 172l109 2l-37 -117q16 8 55 9q49 0 88 -40t39 -102q0 -76 -49 -118t-143 -42q-78 0 -172 48z" />
<glyph unicode="&#xb9;" horiz-adv-x="518" d="M33 1509l207 105h131v-604h127v-136h-441v136h162v442l-156 -66z" />
<glyph unicode="&#xba;" horiz-adv-x="593" d="M63 1006q0 303 236 303q119 0 175 -82t56 -219q0 -305 -237 -306q-119 0 -174.5 82t-55.5 222zM203 1008q0 -168 94 -168q92 0 92 165.5t-94 165.5q-92 0 -92 -163z" />
<glyph unicode="&#xbb;" horiz-adv-x="927" d="M63 195l222 356l-222 360l127 95l334 -453l-334 -453zM430 195l221 356l-221 360l127 95l334 -453l-334 -453z" />
<glyph unicode="&#xbc;" horiz-adv-x="1304" d="M63 1280l207 104h131v-604h127v-135h-440v135h162v443l-156 -66zM311 0v25l686 1359h150v-24l-692 -1360h-144zM698 143v113l211 365l60 118h180v-471h84v-125h-84v-143h-150v143h-301zM846 268h153v275z" />
<glyph unicode="&#xbd;" horiz-adv-x="1376" d="M63 1280l207 104h131v-604h127v-135h-440v135h162v443l-156 -66zM311 0v25l686 1359h150v-24l-692 -1360h-144zM831 528q0 96 57.5 159t170.5 63q109 0 167 -61.5t58 -158.5q0 -121 -141 -274q-29 -29 -111 -119h148v74h120v-211h-462v113l192 213q53 66 74.5 105.5 t21.5 92.5q0 90 -71 90q-31 0 -50.5 -23.5t-19.5 -64.5q0 -29 8 -53l-151 -12q-10 23 -11 67z" />
<glyph unicode="&#xbe;" horiz-adv-x="1255" d="M63 713l70 116q66 -59 152 -59q94 0 94 84q0 45 -25.5 64.5t-87.5 19.5h-73v135h69q45 0 71.5 24.5t26.5 67.5q0 92 -77 92q-45 0 -78 -16v-74h-107l-16 158q86 70 205 70q125 0 176 -62.5t51 -144.5q0 -139 -106 -174q129 -31 129 -168q0 -98 -64.5 -155.5t-187.5 -57.5 q-137 0 -222 80zM274 0v25l687 1359h149v-24l-692 -1360h-144zM662 143v113l210 365l60 118h180v-471h84v-125h-84v-143h-149v143h-301zM809 268h154v275z" />
<glyph unicode="&#xbf;" horiz-adv-x="784" d="M61 -129q0 80 21.5 145.5t62.5 112.5t75 74.5t81 56.5v232h207v-314q-119 -59 -181.5 -123.5t-62.5 -152.5q0 -72 36 -121t111.5 -49t131.5 55v162h151l33 -271q-127 -141 -328 -141q-162 0 -250 95.5t-88 238.5zM276 815q0 59 38 99t95.5 40t94.5 -40t37 -99t-37 -99 t-94.5 -40t-95.5 40t-38 99z" />
<glyph unicode="&#xc0;" horiz-adv-x="1171" d="M12 0v180h99l292 1024h-94v180h553v-180h-92l293 -1024h96v-180h-465v180h146l-64 242h-381l-65 -242h145v-180h-463zM365 1843h202l121 -330h-178zM438 600h299l-151 571z" />
<glyph unicode="&#xc1;" horiz-adv-x="1171" d="M12 0v180h99l292 1024h-94v180h553v-180h-92l293 -1024h96v-180h-465v180h146l-64 242h-381l-65 -242h145v-180h-463zM438 600h299l-151 571zM498 1513l120 330h203l-145 -330h-178z" />
<glyph unicode="&#xc2;" horiz-adv-x="1171" d="M12 0v180h99l292 1024h-94v180h553v-180h-92l293 -1024h96v-180h-465v180h146l-64 242h-381l-65 -242h145v-180h-463zM317 1513l144 330h254l141 -330h-178l-90 220l-90 -220h-181zM438 600h299l-151 571z" />
<glyph unicode="&#xc3;" horiz-adv-x="1171" d="M12 0v180h99l292 1024h-94v180h553v-180h-92l293 -1024h96v-180h-465v180h146l-64 242h-381l-65 -242h145v-180h-463zM334 1597l4 158q45 -49 108 -49q41 0 121 40t148 40q66 0 125 -47l-6 -160q-61 51 -121 51q-41 0 -124 -40t-138 -40q-74 0 -117 47zM438 600h299 l-151 571z" />
<glyph unicode="&#xc4;" horiz-adv-x="1171" d="M12 0v180h99l292 1024h-94v180h553v-180h-92l293 -1024h96v-180h-465v180h146l-64 242h-381l-65 -242h145v-180h-463zM291 1659q0 66 33.5 98.5t89.5 32.5q51 0 87 -33t36 -98q0 -63 -36 -95t-87 -32q-123 0 -123 127zM438 600h299l-151 571zM639 1659q0 66 34 98.5 t89 32.5q49 0 85 -33t36 -98q0 -63 -36 -95t-85 -32q-123 0 -123 127z" />
<glyph unicode="&#xc5;" horiz-adv-x="1171" d="M12 0v180h99l292 1024h-94v180h553v-180h-92l293 -1024h96v-180h-465v180h146l-64 242h-381l-65 -242h145v-180h-463zM399 1657q0 90 48.5 144t136.5 54q92 0 141 -53t49 -145q0 -88 -50 -141.5t-140 -53.5q-86 0 -135.5 54.5t-49.5 140.5zM438 600h299l-151 571z M514 1657q0 -84 70 -84q74 0 73 84q0 90 -73 90q-70 0 -70 -90z" />
<glyph unicode="&#xc6;" horiz-adv-x="1658" d="M2 0v180h98l545 1024h-96v180h1022v-389h-193v209h-336v-411h340v-183h-340v-430h342v215h193v-395h-872v180h129v238h-396l-110 -238h131v-180h-457zM543 602h293v563z" />
<glyph unicode="&#xc7;" horiz-adv-x="1024" d="M82 696q0 332 133 520.5t379 188.5q168 0 356 -90l-12 -438h-184l-6 290q-74 39 -160 39q-141 0 -214 -135t-73 -375q0 -238 74 -375t221 -137q162 0 313 97l45 -189q-160 -104 -329 -112l-29 -95q20 8 55 9q49 0 88 -40t39 -102q0 -76 -49 -118t-143 -42q-78 0 -172 48 l16 98q82 -49 139 -49q68 0 68 63q0 61 -49 62q-31 0 -47 -17q-51 20 -72 31l49 154q-436 43 -436 714z" />
<glyph unicode="&#xc8;" horiz-adv-x="1017" d="M78 0v180h117v1024h-117v180h852v-389h-193v209h-336v-411h340v-183h-340v-430h342v215h193v-395h-858zM295 1843h203l120 -330h-178z" />
<glyph unicode="&#xc9;" horiz-adv-x="1017" d="M78 0v180h117v1024h-117v180h852v-389h-193v209h-336v-411h340v-183h-340v-430h342v215h193v-395h-858zM414 1513l121 330h202l-145 -330h-178z" />
<glyph unicode="&#xca;" horiz-adv-x="1017" d="M78 0v180h117v1024h-117v180h852v-389h-193v209h-336v-411h340v-183h-340v-430h342v215h193v-395h-858zM262 1513l144 330h253l142 -330h-178l-91 220l-90 -220h-180z" />
<glyph unicode="&#xcb;" horiz-adv-x="1017" d="M78 0v180h117v1024h-117v180h852v-389h-193v209h-336v-411h340v-183h-340v-430h342v215h193v-395h-858zM233 1659q0 66 34 98.5t89 32.5q51 0 87 -33t36 -98q0 -63 -36 -95t-87 -32q-123 0 -123 127zM582 1659q0 66 33.5 98.5t89.5 32.5q49 0 84.5 -33t35.5 -98 q0 -63 -35.5 -95t-84.5 -32q-123 0 -123 127z" />
<glyph unicode="&#xcc;" horiz-adv-x="606" d="M70 0v180h131v1024h-131v180h467v-180h-127v-1024h127v-180h-467zM82 1843h203l121 -330h-179z" />
<glyph unicode="&#xcd;" horiz-adv-x="606" d="M70 0v180h131v1024h-131v180h467v-180h-127v-1024h127v-180h-467zM211 1513l121 330h203l-146 -330h-178z" />
<glyph unicode="&#xce;" horiz-adv-x="606" d="M35 1513l143 330h254l141 -330h-178l-90 220l-90 -220h-180zM70 0v180h131v1024h-131v180h467v-180h-127v-1024h127v-180h-467z" />
<glyph unicode="&#xcf;" horiz-adv-x="606" d="M6 1659q0 66 34 98.5t89 32.5q51 0 87 -33t36 -98q0 -63 -36 -95t-87 -32q-123 0 -123 127zM70 0v180h131v1024h-131v180h467v-180h-127v-1024h127v-180h-467zM354 1659q0 66 34 98.5t89 32.5q49 0 85 -33t36 -98q0 -63 -36 -95t-85 -32q-123 0 -123 127z" />
<glyph unicode="&#xd0;" horiz-adv-x="1173" d="M90 637v131h121v436h-119v180h404q326 0 458.5 -163.5t132.5 -528.5q0 -360 -133 -526t-458 -166h-404v180h119v457h-121zM420 180h108q195 0 272 118t77 398q0 270 -81 389t-268 119h-108v-436h217v-131h-217v-457z" />
<glyph unicode="&#xd1;" horiz-adv-x="1277" d="M80 0v180h113v1024h-113v180h346l469 -999v819h-160v180h477v-180h-108v-1204h-227l-478 1001v-821h174v-180h-493zM391 1597l4 158q45 -49 109 -49q41 0 121 40t147 40q66 0 125 -47l-6 -160q-61 51 -121 51q-41 0 -124 -40t-138 -40q-74 0 -117 47z" />
<glyph unicode="&#xd2;" horiz-adv-x="1122" d="M86 690q0 354 107.5 535.5t367.5 181.5q258 0 366.5 -181.5t108.5 -535.5q0 -350 -109.5 -531.5t-367.5 -181.5t-365.5 180.5t-107.5 532.5zM311 690q0 -268 54.5 -393t195.5 -125t195.5 125t54.5 393t-54.5 394t-193.5 126t-195.5 -127t-56.5 -393zM336 1843h203 l120 -330h-178z" />
<glyph unicode="&#xd3;" horiz-adv-x="1122" d="M86 690q0 354 107.5 535.5t367.5 181.5q258 0 366.5 -181.5t108.5 -535.5q0 -350 -109.5 -531.5t-367.5 -181.5t-365.5 180.5t-107.5 532.5zM311 690q0 -268 54.5 -393t195.5 -125t195.5 125t54.5 393t-54.5 394t-193.5 126t-195.5 -127t-56.5 -393zM467 1513l121 330 h203l-146 -330h-178z" />
<glyph unicode="&#xd4;" horiz-adv-x="1122" d="M86 690q0 354 107.5 535.5t367.5 181.5q258 0 366.5 -181.5t108.5 -535.5q0 -350 -109.5 -531.5t-367.5 -181.5t-365.5 180.5t-107.5 532.5zM293 1513l143 330h254l141 -330h-178l-90 220l-90 -220h-180zM311 690q0 -268 54.5 -393t195.5 -125t195.5 125t54.5 393 t-54.5 394t-193.5 126t-195.5 -127t-56.5 -393z" />
<glyph unicode="&#xd5;" horiz-adv-x="1122" d="M86 690q0 354 107.5 535.5t367.5 181.5q258 0 366.5 -181.5t108.5 -535.5q0 -350 -109.5 -531.5t-367.5 -181.5t-365.5 180.5t-107.5 532.5zM309 1597l4 158q45 -49 109 -49q41 0 121 40t147 40q66 0 125 -47l-6 -160q-61 51 -121 51q-41 0 -124 -40t-138 -40 q-74 0 -117 47zM311 690q0 -268 54.5 -393t195.5 -125t195.5 125t54.5 393t-54.5 394t-193.5 126t-195.5 -127t-56.5 -393z" />
<glyph unicode="&#xd6;" horiz-adv-x="1122" d="M86 690q0 354 107.5 535.5t367.5 181.5q258 0 366.5 -181.5t108.5 -535.5q0 -350 -109.5 -531.5t-367.5 -181.5t-365.5 180.5t-107.5 532.5zM268 1659q0 66 34 98.5t89 32.5q51 0 87 -33t36 -98q0 -63 -36 -95t-87 -32q-123 0 -123 127zM311 690q0 -268 54.5 -393 t195.5 -125t195.5 125t54.5 393t-54.5 394t-193.5 126t-195.5 -127t-56.5 -393zM616 1659q0 66 34 98.5t89 32.5q49 0 85 -33t36 -98q0 -63 -36 -95t-85 -32q-123 0 -123 127z" />
<glyph unicode="&#xd7;" d="M70 836l143 137l262 -291l254 285l133 -125l-254 -285l262 -293l-145 -133l-260 289l-254 -281l-133 127l252 281z" />
<glyph unicode="&#xd8;" horiz-adv-x="1122" d="M86 690q0 354 107.5 535.5t367.5 181.5q76 0 154 -25l22 64h162v-25l-41 -114q178 -158 178 -617q0 -350 -109.5 -531.5t-367.5 -181.5q-88 0 -162 25l-26 -80h-154v27l43 129q-174 158 -174 612zM311 690q0 -229 47 -332l291 834q-37 18 -86 18q-139 0 -195.5 -127 t-56.5 -393zM465 193q41 -20 96 -21q141 0 195.5 125t54.5 393q0 231 -47 348z" />
<glyph unicode="&#xd9;" horiz-adv-x="1179" d="M51 1204v180h463v-180h-149v-717q0 -178 54 -245.5t171 -67.5q115 0 169 67.5t54 245.5v717h-147v180h460v-180h-106v-712q0 -281 -111.5 -396.5t-320.5 -115.5q-207 0 -317.5 115.5t-110.5 396.5v712h-109zM362 1843h203l121 -330h-178z" />
<glyph unicode="&#xda;" horiz-adv-x="1179" d="M51 1204v180h463v-180h-149v-717q0 -178 54 -245.5t171 -67.5q115 0 169 67.5t54 245.5v717h-147v180h460v-180h-106v-712q0 -281 -111.5 -396.5t-320.5 -115.5q-207 0 -317.5 115.5t-110.5 396.5v712h-109zM502 1513l121 330h202l-145 -330h-178z" />
<glyph unicode="&#xdb;" horiz-adv-x="1179" d="M51 1204v180h463v-180h-149v-717q0 -178 54 -245.5t171 -67.5q115 0 169 67.5t54 245.5v717h-147v180h460v-180h-106v-712q0 -281 -111.5 -396.5t-320.5 -115.5q-207 0 -317.5 115.5t-110.5 396.5v712h-109zM319 1513l144 330h254l141 -330h-178l-90 220l-90 -220h-181z " />
<glyph unicode="&#xdc;" horiz-adv-x="1179" d="M51 1204v180h463v-180h-149v-717q0 -178 54 -245.5t171 -67.5q115 0 169 67.5t54 245.5v717h-147v180h460v-180h-106v-712q0 -281 -111.5 -396.5t-320.5 -115.5q-207 0 -317.5 115.5t-110.5 396.5v712h-109zM295 1659q0 66 33.5 98.5t89.5 32.5q51 0 87 -33t36 -98 q0 -63 -36 -95t-87 -32q-123 0 -123 127zM643 1659q0 66 34 98.5t89 32.5q49 0 85 -33t36 -98q0 -63 -36 -95t-85 -32q-123 0 -123 127z" />
<glyph unicode="&#xdd;" horiz-adv-x="1081" d="M10 1204v180h459v-180h-135l209 -477l213 477h-135v180h458v-180h-108l-326 -659v-365h133v-180h-485v180h143v365l-317 659h-109zM453 1513l120 330h203l-145 -330h-178z" />
<glyph unicode="&#xde;" horiz-adv-x="1024" d="M78 0v180h117v1024h-117v180h461v-180h-138v-127h170q406 0 406 -383t-406 -383h-170v-131h140v-180h-463zM401 496h181q98 0 140 50t42 148q0 203 -182 203h-181v-401z" />
<glyph unicode="&#xdf;" horiz-adv-x="1024" d="M45 0v162l105 35v815q0 207 87 320.5t259 113.5q168 0 256 -100.5t88 -247.5q0 -90 -65.5 -215t-65.5 -152q0 -57 67 -113l60 -55q150 -135 149 -299q0 -127 -82 -207t-207 -80q-150 0 -254 62l-6 248h152l18 -144q27 -16 74 -16t72.5 35t25.5 92q0 98 -67 158l-84 82 q-66 59 -94.5 105t-28.5 116q0 55 65.5 172t65.5 190q0 86 -38 135.5t-105 49.5q-82 0 -115 -61.5t-33 -178.5v-1022h-299z" />
<glyph unicode="&#xe0;" horiz-adv-x="851" d="M53 240q0 137 96.5 203.5t282.5 91.5l90 14v203q-51 20 -112 20q-70 0 -113 -20v-146h-172q-27 66 -27 131q0 98 79 157.5t235 59.5q176 0 242.5 -74.5t66.5 -267.5v-383q0 -59 45 -59q6 0 43 6v-176q-49 -12 -111 -12q-143 0 -159 141q-86 -152 -244 -152 q-115 0 -178.5 70t-63.5 193zM211 1425h203l121 -329h-179zM264 260q0 -109 92 -108q90 0 166 88v170l-90 -17q-88 -16 -128 -47t-40 -86z" />
<glyph unicode="&#xe1;" horiz-adv-x="851" d="M53 240q0 137 96.5 203.5t282.5 91.5l90 14v203q-51 20 -112 20q-70 0 -113 -20v-146h-172q-27 66 -27 131q0 98 79 157.5t235 59.5q176 0 242.5 -74.5t66.5 -267.5v-383q0 -59 45 -59q6 0 43 6v-176q-49 -12 -111 -12q-143 0 -159 141q-86 -152 -244 -152 q-115 0 -178.5 70t-63.5 193zM264 260q0 -109 92 -108q90 0 166 88v170l-90 -17q-88 -16 -128 -47t-40 -86zM326 1096l120 329h203l-145 -329h-178z" />
<glyph unicode="&#xe2;" horiz-adv-x="851" d="M53 240q0 137 96.5 203.5t282.5 91.5l90 14v203q-51 20 -112 20q-70 0 -113 -20v-146h-172q-27 66 -27 131q0 98 79 157.5t235 59.5q176 0 242.5 -74.5t66.5 -267.5v-383q0 -59 45 -59q6 0 43 6v-176q-49 -12 -111 -12q-143 0 -159 141q-86 -152 -244 -152 q-115 0 -178.5 70t-63.5 193zM150 1096l143 329h254l141 -329h-178l-90 219l-90 -219h-180zM264 260q0 -109 92 -108q90 0 166 88v170l-90 -17q-88 -16 -128 -47t-40 -86z" />
<glyph unicode="&#xe3;" horiz-adv-x="851" d="M53 240q0 137 96.5 203.5t282.5 91.5l90 14v203q-51 20 -112 20q-70 0 -113 -20v-146h-172q-27 66 -27 131q0 98 79 157.5t235 59.5q176 0 242.5 -74.5t66.5 -267.5v-383q0 -59 45 -59q6 0 43 6v-176q-49 -12 -111 -12q-143 0 -159 141q-86 -152 -244 -152 q-115 0 -178.5 70t-63.5 193zM164 1180l4 157q45 -49 108 -49q41 0 121 40t148 40q66 0 125 -47l-6 -160q-61 51 -121 51q-41 0 -124 -39.5t-138 -39.5q-74 0 -117 47zM264 260q0 -109 92 -108q90 0 166 88v170l-90 -17q-88 -16 -128 -47t-40 -86z" />
<glyph unicode="&#xe4;" horiz-adv-x="851" d="M53 240q0 137 96.5 203.5t282.5 91.5l90 14v203q-51 20 -112 20q-70 0 -113 -20v-146h-172q-27 66 -27 131q0 98 79 157.5t235 59.5q176 0 242.5 -74.5t66.5 -267.5v-383q0 -59 45 -59q6 0 43 6v-176q-49 -12 -111 -12q-143 0 -159 141q-86 -152 -244 -152 q-115 0 -178.5 70t-63.5 193zM121 1241q0 66 33.5 98.5t89.5 32.5q51 0 87 -32.5t36 -98.5q0 -63 -36 -95t-87 -32q-123 0 -123 127zM264 260q0 -109 92 -108q90 0 166 88v170l-90 -17q-88 -16 -128 -47t-40 -86zM469 1241q0 66 34 98.5t89 32.5q49 0 85 -32.5t36 -98.5 q0 -63 -36 -95t-85 -32q-123 0 -123 127z" />
<glyph unicode="&#xe5;" horiz-adv-x="851" d="M53 240q0 137 96.5 203.5t282.5 91.5l90 14v203q-51 20 -112 20q-70 0 -113 -20v-146h-172q-27 66 -27 131q0 98 79 157.5t235 59.5q176 0 242.5 -74.5t66.5 -267.5v-383q0 -59 45 -59q6 0 43 6v-176q-49 -12 -111 -12q-143 0 -159 141q-86 -152 -244 -152 q-115 0 -178.5 70t-63.5 193zM233 1290q0 90 48.5 144.5t136.5 54.5q92 0 141 -53.5t49 -145.5q0 -88 -50 -141t-140 -53q-86 0 -135.5 54t-49.5 140zM264 260q0 -109 92 -108q90 0 166 88v170l-90 -17q-88 -16 -128 -47t-40 -86zM348 1290q0 -84 70 -84q74 0 74 84 q0 90 -74 90q-70 0 -70 -90z" />
<glyph unicode="&#xe6;" horiz-adv-x="1267" d="M55 244q0 139 93.5 202.5t283.5 88.5l90 14v201q-72 20 -141 20q-45 0 -84 -20v-148h-172q-27 68 -27 135q0 98 79 157.5t235 59.5q166 0 241 -106q88 106 232 106q164 0 240.5 -115.5t76.5 -285.5q0 -86 -14 -154h-457q6 -237 170 -237q113 0 227 84l64 -164 q-139 -104 -311 -105q-180 0 -267 164q-55 -72 -139 -118t-180 -46q-115 0 -177.5 73t-62.5 194zM260 260q0 -109 94 -108q86 0 168 94v164l-90 -17q-98 -16 -135 -46t-37 -87zM733 557h275q2 12 2 33q0 190 -133 190q-138 0 -144 -223z" />
<glyph unicode="&#xe7;" horiz-adv-x="794" d="M68 469q0 215 96 350t278 135q156 0 291 -80l-35 -333h-161v215q-41 20 -93 20q-162 0 -161 -291q0 -154 41 -234.5t143 -80.5q115 0 223 74l47 -172q-129 -84 -266 -92l-29 -95q16 8 56 9q49 0 88 -40t39 -102q0 -76 -49.5 -118t-143.5 -42q-78 0 -172 48l16 98 q82 -49 138 -49q70 0 69 63q0 61 -49 62q-31 0 -47 -17q-51 20 -72 31l50 156q-297 43 -297 485z" />
<glyph unicode="&#xe8;" horiz-adv-x="815" d="M68 469q0 219 92 352t264 133q166 0 246 -111.5t80 -289.5q0 -86 -15 -154h-467q7 -237 181 -237q113 0 227 80l63 -162q-141 -102 -301 -103q-371 0 -370 492zM213 1425h203l121 -329h-179zM272 553h285q4 25 4 37q0 90 -39 140t-98 50q-146 0 -152 -227z" />
<glyph unicode="&#xe9;" horiz-adv-x="815" d="M68 469q0 219 92 352t264 133q166 0 246 -111.5t80 -289.5q0 -86 -15 -154h-467q7 -237 181 -237q113 0 227 80l63 -162q-141 -102 -301 -103q-371 0 -370 492zM272 553h285q4 25 4 37q0 90 -39 140t-98 50q-146 0 -152 -227zM313 1096l121 329h203l-145 -329h-179z" />
<glyph unicode="&#xea;" horiz-adv-x="815" d="M68 469q0 219 92 352t264 133q166 0 246 -111.5t80 -289.5q0 -86 -15 -154h-467q7 -237 181 -237q113 0 227 80l63 -162q-141 -102 -301 -103q-371 0 -370 492zM158 1096l143 329h254l141 -329h-178l-90 219l-90 -219h-180zM272 553h285q4 25 4 37q0 90 -39 140t-98 50 q-146 0 -152 -227z" />
<glyph unicode="&#xeb;" horiz-adv-x="815" d="M68 469q0 219 92 352t264 133q166 0 246 -111.5t80 -289.5q0 -86 -15 -154h-467q7 -237 181 -237q113 0 227 80l63 -162q-141 -102 -301 -103q-371 0 -370 492zM139 1241q0 66 34 98.5t89 32.5q51 0 87 -32.5t36 -98.5q0 -63 -36 -95t-87 -32q-123 0 -123 127zM272 553 h285q4 25 4 37q0 90 -39 140t-98 50q-146 0 -152 -227zM487 1241q0 66 34 98.5t89 32.5q49 0 85 -32.5t36 -98.5q0 -63 -36 -95t-85 -32q-123 0 -123 127z" />
<glyph unicode="&#xec;" horiz-adv-x="589" d="M53 0v180h162v574h-162v180h359v-754h145v-180h-504zM82 1425h203l121 -329h-179z" />
<glyph unicode="&#xed;" horiz-adv-x="589" d="M53 0v180h162v574h-162v180h359v-754h145v-180h-504zM221 1096l121 329h203l-146 -329h-178z" />
<glyph unicode="&#xee;" horiz-adv-x="589" d="M25 1096l143 329h254l141 -329h-178l-90 219l-90 -219h-180zM53 0v180h162v574h-162v180h359v-754h145v-180h-504z" />
<glyph unicode="&#xef;" horiz-adv-x="589" d="M-8 1241q0 66 33.5 98.5t89.5 32.5q51 0 87 -32.5t36 -98.5q0 -63 -36 -95t-87 -32q-123 0 -123 127zM53 0v180h162v574h-162v180h359v-754h145v-180h-504zM340 1241q0 66 34 98.5t89 32.5q49 0 85 -32.5t36 -98.5q0 -63 -36 -95t-85 -32q-123 0 -123 127z" />
<glyph unicode="&#xf0;" horiz-adv-x="937" d="M68 457q0 209 91 333.5t244 124.5q90 0 151.5 -52t88.5 -126q2 10 2 35q0 156 -55 297l-127 -65l-55 141l120 59q-66 117 -170 221h244q59 -61 105 -139l100 49l53 -135l-90 -47q90 -221 90 -485q0 -145 -20.5 -265t-65.5 -218.5t-125 -153t-188 -54.5 q-190 0 -291.5 131.5t-101.5 348.5zM279 440q0 -119 43 -193.5t133 -74.5q92 0 138 104.5t48 258.5q-68 170 -197 170q-166 0 -165 -265z" />
<glyph unicode="&#xf1;" horiz-adv-x="995" d="M70 0v180h98v574h-96v180h268v-109q115 129 266 129q129 0 189.5 -74.5t60.5 -242.5v-457h96v-180h-389v180h99v436q0 78 -26 111t-91 33q-100 0 -183 -78v-502h99v-180h-391zM250 1180l4 157q45 -49 108 -49q41 0 121 40t148 40q66 0 125 -47l-6 -160q-61 51 -121 51 q-41 0 -124 -39.5t-138 -39.5q-74 0 -117 47z" />
<glyph unicode="&#xf2;" horiz-adv-x="874" d="M70 465q0 242 86.5 365.5t283.5 123.5q367 0 367 -485q0 -242 -88 -367t-285 -125q-365 0 -364 488zM221 1425h203l121 -329h-178zM274 469q0 -162 37 -231.5t127 -69.5t126 68.5t36 228.5q0 164 -36 231.5t-128 67.5q-90 0 -126 -67.5t-36 -227.5z" />
<glyph unicode="&#xf3;" horiz-adv-x="874" d="M70 465q0 242 86.5 365.5t283.5 123.5q367 0 367 -485q0 -242 -88 -367t-285 -125q-365 0 -364 488zM274 469q0 -162 37 -231.5t127 -69.5t126 68.5t36 228.5q0 164 -36 231.5t-128 67.5q-90 0 -126 -67.5t-36 -227.5zM338 1096l121 329h203l-146 -329h-178z" />
<glyph unicode="&#xf4;" horiz-adv-x="874" d="M70 465q0 242 86.5 365.5t283.5 123.5q367 0 367 -485q0 -242 -88 -367t-285 -125q-365 0 -364 488zM168 1096l143 329h254l142 -329h-179l-90 219l-90 -219h-180zM274 469q0 -162 37 -231.5t127 -69.5t126 68.5t36 228.5q0 164 -36 231.5t-128 67.5q-90 0 -126 -67.5 t-36 -227.5z" />
<glyph unicode="&#xf5;" horiz-adv-x="874" d="M70 465q0 242 86.5 365.5t283.5 123.5q367 0 367 -485q0 -242 -88 -367t-285 -125q-365 0 -364 488zM184 1180l4 157q45 -49 109 -49q41 0 121 40t147 40q66 0 125 -47l-6 -160q-61 51 -121 51q-41 0 -124 -39.5t-138 -39.5q-74 0 -117 47zM274 469q0 -162 37 -231.5 t127 -69.5t126 68.5t36 228.5q0 164 -36 231.5t-128 67.5q-90 0 -126 -67.5t-36 -227.5z" />
<glyph unicode="&#xf6;" horiz-adv-x="874" d="M70 465q0 242 86.5 365.5t283.5 123.5q367 0 367 -485q0 -242 -88 -367t-285 -125q-365 0 -364 488zM143 1241q0 66 34 98.5t89 32.5q51 0 87 -32.5t36 -98.5q0 -63 -36 -95t-87 -32q-123 0 -123 127zM274 469q0 -162 37 -231.5t127 -69.5t126 68.5t36 228.5 q0 164 -36 231.5t-128 67.5q-90 0 -126 -67.5t-36 -227.5zM492 1241q0 66 33.5 98.5t88.5 32.5q49 0 85 -32.5t36 -98.5q0 -63 -36 -95t-85 -32q-123 0 -122 127z" />
<glyph unicode="&#xf7;" d="M59 453v200h820v-200h-820zM342 178.5q0 59.5 37 99t94 39.5t95 -39.5t38 -99t-38 -99.5t-95 -40t-94 40t-37 99.5zM342 927.5q0 61.5 37 100.5t94 39t95 -39t38 -100.5t-38 -101.5t-95 -40t-94 40t-37 101.5z" />
<glyph unicode="&#xf8;" horiz-adv-x="874" d="M70 465q0 242 86.5 365.5t283.5 123.5q49 0 101 -10l34 98h125v-24l-45 -125q152 -109 152 -424q0 -242 -88 -367t-285 -125q-59 0 -108 13l-37 -101h-121v27l45 127q-143 111 -143 422zM274 469q0 -131 35 -182l160 473q-10 4 -33 4q-90 0 -126 -67.5t-36 -227.5z M397 172q12 -4 41 -4q90 0 126 67.5t36 235.5q0 127 -39 184z" />
<glyph unicode="&#xf9;" horiz-adv-x="985" d="M37 754v180h305v-619q0 -80 26.5 -110.5t84.5 -30.5q55 0 109 37t77 86v457h-139v180h334v-754h112v-180h-266v160q-37 -72 -110.5 -127.5t-172.5 -55.5q-131 0 -191.5 75t-60.5 243v459h-108zM260 1425h203l121 -329h-178z" />
<glyph unicode="&#xfa;" horiz-adv-x="985" d="M37 754v180h305v-619q0 -80 26.5 -110.5t84.5 -30.5q55 0 109 37t77 86v457h-139v180h334v-754h112v-180h-266v160q-37 -72 -110.5 -127.5t-172.5 -55.5q-131 0 -191.5 75t-60.5 243v459h-108zM352 1096l121 329h203l-146 -329h-178z" />
<glyph unicode="&#xfb;" horiz-adv-x="985" d="M37 754v180h305v-619q0 -80 26.5 -110.5t84.5 -30.5q55 0 109 37t77 86v457h-139v180h334v-754h112v-180h-266v160q-37 -72 -110.5 -127.5t-172.5 -55.5q-131 0 -191.5 75t-60.5 243v459h-108zM201 1096l143 329h254l141 -329h-178l-90 219l-90 -219h-180z" />
<glyph unicode="&#xfc;" horiz-adv-x="985" d="M37 754v180h305v-619q0 -80 26.5 -110.5t84.5 -30.5q55 0 109 37t77 86v457h-139v180h334v-754h112v-180h-266v160q-37 -72 -110.5 -127.5t-172.5 -55.5q-131 0 -191.5 75t-60.5 243v459h-108zM172 1241q0 66 34 98.5t89 32.5q51 0 87 -32.5t36 -98.5q0 -63 -36 -95 t-87 -32q-123 0 -123 127zM520 1241q0 66 34 98.5t89 32.5q49 0 85 -32.5t36 -98.5q0 -63 -36 -95t-85 -32q-123 0 -123 127z" />
<glyph unicode="&#xfd;" horiz-adv-x="978" d="M23 754v180h339v-178l152 -508l148 506h-164v180h456v-180h-100l-332 -1004q-68 -213 -248 -213q-102 0 -168 35v154h216l92 282l-267 746h-124zM383 1096l121 329h203l-146 -329h-178z" />
<glyph unicode="&#xfe;" horiz-adv-x="897" d="M8 1245v180h305v-573q66 102 193 102q156 0 238.5 -128t82.5 -361q0 -231 -80.5 -359.5t-240.5 -128.5q-125 0 -193 101v-340h160v-180h-440v170l84 26v1491h-109zM313 254q49 -82 144 -82q168 0 168 293q0 295 -168 295q-90 0 -144 -90v-416z" />
<glyph unicode="&#xff;" horiz-adv-x="978" d="M23 754v180h339v-178l152 -508l148 506h-164v180h456v-180h-100l-332 -1004q-68 -213 -248 -213q-102 0 -168 35v154h216l92 282l-267 746h-124zM201 1241q0 66 33.5 98.5t89.5 32.5q51 0 86.5 -32.5t35.5 -98.5q0 -63 -35.5 -95t-86.5 -32q-123 0 -123 127zM549 1241 q0 66 33.5 98.5t89.5 32.5q49 0 85 -32.5t36 -98.5q0 -63 -36 -95t-85 -32q-123 0 -123 127z" />
<glyph unicode="&#x152;" horiz-adv-x="1529" d="M84 690q0 717 481 717q82 0 164 -23h715v-389h-193v209h-338v-411h340v-183h-340v-430h344v215h191v-395h-723q-72 -23 -162 -23q-479 0 -479 713zM311 690q0 -256 55.5 -387t198.5 -131q94 0 142 31v975q-57 33 -140 32q-141 0 -198.5 -133t-57.5 -387z" />
<glyph unicode="&#x153;" horiz-adv-x="1347" d="M70 465q0 489 370 489q176 0 269 -145q96 145 247 145q164 0 245 -115.5t81 -285.5q0 -86 -14 -154h-457q4 -113 47 -175t123 -62q109 -2 227 84l64 -164q-139 -104 -309 -105q-172 0 -261 140q-90 -139 -268 -140q-188 0 -276 130.5t-88 357.5zM274 469 q0 -156 38 -228.5t126 -72.5t125 72.5t37 224.5q0 156 -37 227.5t-127 71.5q-88 0 -125 -71.5t-37 -223.5zM813 557h277v12v12.5v8.5q0 88 -38 139t-96 51q-133 0 -143 -223z" />
<glyph unicode="&#x178;" horiz-adv-x="1081" d="M10 1204v180h459v-180h-135l209 -477l213 477h-135v180h458v-180h-108l-326 -659v-365h133v-180h-485v180h143v365l-317 659h-109zM248 1659q0 66 33.5 98.5t89.5 32.5q51 0 87 -33t36 -98q0 -63 -36 -95t-87 -32q-123 0 -123 127zM596 1659q0 66 34 98.5t89 32.5 q49 0 85 -33t36 -98q0 -63 -36 -95t-85 -32q-123 0 -123 127z" />
<glyph unicode="&#x2c6;" horiz-adv-x="1007" d="M233 1096l144 329h254l141 -329h-178l-90 219l-90 -219h-181z" />
<glyph unicode="&#x2dc;" horiz-adv-x="1007" d="M250 1180l4 157q45 -49 108 -49q41 0 121 40t148 40q66 0 125 -47l-6 -160q-61 51 -121 51q-41 0 -124 -39.5t-138 -39.5q-74 0 -117 47z" />
<glyph unicode="&#x2000;" horiz-adv-x="927" />
<glyph unicode="&#x2001;" horiz-adv-x="1855" />
<glyph unicode="&#x2002;" horiz-adv-x="927" />
<glyph unicode="&#x2003;" horiz-adv-x="1855" />
<glyph unicode="&#x2004;" horiz-adv-x="618" />
<glyph unicode="&#x2005;" horiz-adv-x="463" />
<glyph unicode="&#x2006;" horiz-adv-x="309" />
<glyph unicode="&#x2007;" horiz-adv-x="309" />
<glyph unicode="&#x2008;" horiz-adv-x="231" />
<glyph unicode="&#x2009;" horiz-adv-x="371" />
<glyph unicode="&#x200a;" horiz-adv-x="103" />
<glyph unicode="&#x2010;" d="M162 453v200h616v-200h-616z" />
<glyph unicode="&#x2011;" d="M162 453v200h616v-200h-616z" />
<glyph unicode="&#x2012;" d="M162 453v200h616v-200h-616z" />
<glyph unicode="&#x2013;" horiz-adv-x="993" d="M88 453v200h817v-200h-817z" />
<glyph unicode="&#x2014;" horiz-adv-x="1228" d="M88 453v200h1053v-200h-1053z" />
<glyph unicode="&#x2018;" horiz-adv-x="372" d="M49 891l109 493h149l-43 -493h-215z" />
<glyph unicode="&#x2019;" horiz-adv-x="366" d="M70 891l43 493h215l-109 -493h-149z" />
<glyph unicode="&#x201a;" horiz-adv-x="370" d="M51 -225l43 493h215l-108 -493h-150z" />
<glyph unicode="&#x201c;" horiz-adv-x="661" d="M49 891l109 493h149l-43 -493h-215zM340 891l109 493h149l-43 -493h-215z" />
<glyph unicode="&#x201d;" horiz-adv-x="657" d="M70 891l43 493h215l-109 -493h-149zM360 891l41 493h217l-108 -493h-150z" />
<glyph unicode="&#x201e;" horiz-adv-x="661" d="M51 -227l43 493h215l-108 -493h-150zM342 -227l41 493h217l-108 -493h-150z" />
<glyph unicode="&#x2022;" d="M233 550.5q0 106.5 68 175.5t170 69t168 -69t66 -175.5t-66 -174t-168 -67.5t-170 67.5t-68 174z" />
<glyph unicode="&#x2026;" horiz-adv-x="1146" d="M61 127q0 59 38 99t96 40q55 0 93 -40t38 -99t-38 -99t-93 -40q-57 0 -95.5 40t-38.5 99zM442 127q0 59 38 99t95 40q55 0 93.5 -40t38.5 -99t-38.5 -99t-93.5 -40q-57 0 -95 40t-38 99zM821 127q0 59 37 99t94.5 40t95 -40t37.5 -99t-37.5 -99t-95 -40t-94.5 40t-37 99z " />
<glyph unicode="&#x202f;" horiz-adv-x="371" />
<glyph unicode="&#x2039;" horiz-adv-x="567" d="M41 553l332 453l129 -95l-221 -360l221 -356l-129 -95z" />
<glyph unicode="&#x203a;" horiz-adv-x="563" d="M63 195l222 356l-222 360l127 95l334 -453l-334 -453z" />
<glyph unicode="&#x205f;" horiz-adv-x="463" />
<glyph unicode="&#x20ac;" d="M53 475v143h80v134h-80v145h90q61 508 451 508q143 0 297 -84l-66 -188q-117 74 -225 73q-197 0 -238 -309h400l-45 -145h-365v-134h334l-39 -143h-278q49 -291 235 -291q121 0 238 72l43 -188q-129 -90 -291 -91q-379 0 -447 498h-94z" />
<glyph unicode="&#x2122;" horiz-adv-x="1157" d="M125 1081v162h352v-162h-80v78h-51v-317h55v-84h-204v84h53v317h-45v-78h-80zM514 758v84h39l27 317h-37v84h178l65 -375l70 375h176v-84h-35l23 -317h43v-84h-170v84h41l-19 291l-79 -375h-101l-71 370l-23 -286h43v-84h-170z" />
<glyph unicode="&#x25fc;" horiz-adv-x="931" d="M0 0v932h932v-932h-932z" />
<glyph unicode="&#xfb01;" horiz-adv-x="1169" d="M68 0v162l106 35v557h-106v180h106v199q0 135 63.5 224t190.5 89q68 0 129 -21l-2 -182q-49 12 -90 12q-55 0 -76.5 -33.5t-21.5 -105.5v-182h624v-754h146v-180h-504v180h162v574h-428v-574h157v-180h-456zM764 1262q0 66 32.5 99.5t88.5 33.5q51 0 86 -34t35 -99 q0 -63 -35 -95t-86 -32q-121 0 -121 127z" />
<glyph unicode="&#xfb02;" horiz-adv-x="1062" d="M68 0v162l106 35v557h-106v194h106v129q0 168 90 268.5t291 100.5q166 0 342 -70v-1095q0 -59 14.5 -84t49.5 -25q37 0 73 10l2 -178q-63 -27 -139 -27q-111 0 -153 71t-42 206v989q-72 23 -157 23q-178 0 -178 -199v-119h204v-194h-204v-574h157v-180h-456z" />
</font>
</defs>
</svg>
